<svg width="704" height="700" viewBox="0 0 704 700" fill="none" xmlns="http://www.w3.org/2000/svg">
<g clip-path="url(#clip0_117_282)">
<path d="M218.744 700H14.584C6.53187 700 0 693.469 0 685.416V678.609C0 642.155 29.656 612.499 66.1093 612.499H167.219C203.677 612.499 233.333 642.155 233.333 678.609V685.416C233.333 693.468 226.802 700 218.749 700H218.744ZM29.984 670.833H203.344C199.761 654.183 184.928 641.667 167.224 641.667H66.1093C48.4067 641.667 33.5733 654.182 29.9893 670.833H29.984Z" fill="black"/>
<path d="M685.411 700H481.251C473.199 700 466.667 693.469 466.667 685.416V678.609C466.667 642.155 496.323 612.499 532.776 612.499H633.885C670.344 612.499 700 642.155 700 678.609V685.416C700 693.468 693.469 700 685.416 700H685.411ZM496.651 670.833H670.011C666.427 654.183 651.595 641.667 633.891 641.667H532.781C515.073 641.667 500.24 654.182 496.656 670.833H496.651Z" fill="black"/>
<path d="M649.691 291.667H50.3174C22.5774 291.667 0.00537109 269.093 0.00537109 241.355V137.813C0.00537109 110.073 22.5787 87.5013 50.3174 87.5013H649.691C677.431 87.5013 700.003 110.075 700.003 137.813V241.355C700.003 269.095 677.429 291.667 649.691 291.667ZM50.3174 116.667C38.6559 116.667 29.172 126.151 29.172 137.812V241.353C29.172 253.015 38.6564 262.499 50.3174 262.499H649.691C661.352 262.499 670.836 253.014 670.836 241.353V137.812C670.836 126.151 661.352 116.667 649.691 116.667H50.3174Z" fill="black"/>
<path d="M518.331 287.4C512.638 281.707 512.638 272.473 518.331 266.775L672.051 113.055C677.743 107.362 686.977 107.362 692.676 113.055C698.369 118.747 698.369 127.981 692.676 133.68L538.956 287.4C533.263 293.093 524.029 293.098 518.331 287.4Z" fill="black"/>
<path d="M387.077 287.4C381.385 281.707 381.385 272.473 387.077 266.775L562.077 91.7746C567.77 86.082 577.004 86.082 582.703 91.7746C588.395 97.4673 588.395 106.701 582.703 112.4L407.703 287.4C402.01 293.093 392.776 293.098 387.077 287.4Z" fill="black"/>
<path d="M255.837 287.4C250.145 281.707 250.145 272.473 255.837 266.775L430.837 91.7746C436.53 86.082 445.764 86.082 451.463 91.7746C457.155 97.4673 457.155 106.701 451.463 112.4L276.463 287.4C270.77 293.093 261.536 293.098 255.837 287.4Z" fill="black"/>
<path d="M124.584 287.4C118.891 281.707 118.891 272.473 124.584 266.775L299.584 91.7746C305.277 86.082 314.511 86.082 320.209 91.7746C325.902 97.4673 325.902 106.701 320.209 112.4L145.209 287.4C139.517 293.093 130.283 293.098 124.584 287.4Z" fill="black"/>
<path d="M9.87204 270.853C4.17937 265.161 4.17937 255.927 9.87204 250.228L168.339 91.7613C174.031 86.0687 183.265 86.0635 188.964 91.7613C194.657 97.454 194.657 106.688 188.964 112.387L30.4974 270.853C24.7995 276.546 15.5654 276.546 9.87204 270.853Z" fill="black"/>
<path d="M649.691 539.587H50.3174C22.5774 539.587 0.00537109 517.013 0.00537109 489.275V385.733C0.00537109 357.993 22.5787 335.421 50.3174 335.421H649.691C677.431 335.421 700.003 357.995 700.003 385.733V489.275C700.003 517.015 677.429 539.587 649.691 539.587ZM50.3174 364.587C38.6559 364.587 29.172 374.071 29.172 385.732V489.273C29.172 500.935 38.6564 510.419 50.3174 510.419H649.691C661.352 510.419 670.836 500.934 670.836 489.273V385.732C670.836 374.071 661.352 364.587 649.691 364.587H50.3174Z" fill="black"/>
<path d="M518.331 535.307C512.638 529.614 512.638 520.38 518.331 514.681L672.051 360.961C677.743 355.269 686.977 355.269 692.676 360.961C698.369 366.654 698.369 375.888 692.676 381.587L538.956 535.307C533.258 541.005 524.029 540.999 518.331 535.307Z" fill="black"/>
<path d="M387.077 535.307C381.385 529.614 381.385 520.38 387.077 514.681L562.077 339.681C567.77 333.989 577.004 333.989 582.703 339.681C588.395 345.374 588.395 354.608 582.703 360.307L407.703 535.307C402.005 541.005 392.776 540.999 387.077 535.307Z" fill="black"/>
<path d="M255.837 535.307C250.145 529.614 250.145 520.38 255.837 514.681L430.837 339.681C436.53 333.989 445.764 333.989 451.463 339.681C457.155 345.374 457.155 354.608 451.463 360.307L276.463 535.307C270.765 541.005 261.536 540.999 255.837 535.307Z" fill="black"/>
<path d="M124.584 535.307C118.891 529.614 118.891 520.38 124.584 514.681L299.584 339.681C305.277 333.989 314.511 333.989 320.209 339.681C325.902 345.374 325.902 354.608 320.209 360.307L145.209 535.307C139.511 541.005 130.283 540.999 124.584 535.307Z" fill="black"/>
<path d="M9.87204 518.773C4.17937 513.081 4.17937 503.847 9.87204 498.148L168.339 339.681C174.031 333.989 183.265 333.983 188.964 339.681C194.657 345.374 194.657 354.608 188.964 360.307L30.4974 518.773C24.7995 524.466 15.5654 524.466 9.87204 518.773V518.773Z" fill="black"/>
<path d="M145.837 116.667H87.504C79.4519 116.667 72.92 110.135 72.92 102.083V43.7493C72.92 19.624 92.5454 0 116.669 0C140.793 0 160.419 19.6253 160.419 43.7493V102.083C160.419 110.135 153.888 116.667 145.835 116.667H145.837ZM102.088 87.5H131.255V43.7507C131.255 35.7091 124.713 29.1667 116.671 29.1667C108.628 29.1667 102.087 35.7083 102.087 43.7507L102.088 87.5Z" fill="black"/>
<path d="M612.504 116.667H554.171C546.119 116.667 539.587 110.135 539.587 102.083V43.7493C539.587 19.624 559.212 0 583.336 0C607.46 0 627.085 19.6253 627.085 43.7493V102.083C627.085 110.135 620.554 116.667 612.501 116.667H612.504ZM568.755 87.5H597.921V43.7507C597.921 35.7091 591.38 29.1667 583.337 29.1667C575.295 29.1667 568.753 35.7083 568.753 43.7507L568.755 87.5Z" fill="black"/>
<path d="M145.837 364.587H87.504C79.4519 364.587 72.92 358.055 72.92 350.003V277.085C72.92 269.033 79.4512 262.501 87.504 262.501H145.837C153.89 262.501 160.421 269.033 160.421 277.085V350.003C160.421 358.055 153.89 364.587 145.837 364.587ZM102.088 335.42H131.255V291.671H102.088V335.42Z" fill="black"/>
<path d="M145.837 641.667H87.504C79.4519 641.667 72.92 635.135 72.92 627.083V525C72.92 516.948 79.4512 510.416 87.504 510.416H145.837C153.89 510.416 160.421 516.947 160.421 525V627.083C160.421 635.135 153.89 641.667 145.837 641.667ZM102.088 612.5H131.255V539.583H102.088V612.5Z" fill="black"/>
<path d="M612.504 364.587H554.171C546.119 364.587 539.587 358.055 539.587 350.003V277.085C539.587 269.033 546.118 262.501 554.171 262.501H612.504C620.556 262.501 627.088 269.033 627.088 277.085V350.003C627.088 358.055 620.557 364.587 612.504 364.587ZM568.755 335.42H597.921V291.671H568.755V335.42Z" fill="black"/>
<path d="M612.504 641.667H554.171C546.119 641.667 539.587 635.135 539.587 627.083V525C539.587 516.948 546.118 510.416 554.171 510.416H612.504C620.556 510.416 627.088 516.947 627.088 525V627.083C627.088 635.135 620.557 641.667 612.504 641.667ZM568.755 612.5H597.921V539.583H568.755V612.5Z" fill="black"/>
</g>
<defs>
<clipPath id="clip0_117_282">
<rect width="704" height="700" fill="white"/>
</clipPath>
</defs>
</svg>
