<svg width="398" height="163" viewBox="0 0 398 163" fill="none" xmlns="http://www.w3.org/2000/svg">
<path d="M85.9082 108V86.6719H83.1689L83.125 102.58L74.8486 86.6719H72.0947V108H74.834L74.8779 92.0625L83.1543 108H85.9082ZM97.5684 108.293C99.1113 108.293 100.405 107.985 101.45 107.37C102.505 106.745 103.296 106.032 103.823 105.231L102.168 103.942C101.67 104.587 101.045 105.104 100.293 105.495C99.541 105.886 98.6816 106.081 97.7148 106.081C96.9824 106.081 96.3135 105.944 95.708 105.671C95.1025 105.397 94.585 105.021 94.1553 104.543C93.7354 104.094 93.4033 103.576 93.1592 102.99C92.9248 102.404 92.7734 101.726 92.7051 100.954V100.852H104.028V99.6357C104.028 98.5322 103.887 97.5068 103.604 96.5596C103.33 95.6123 102.91 94.7871 102.344 94.084C101.777 93.3906 101.064 92.8486 100.205 92.458C99.3555 92.0576 98.3594 91.8574 97.2168 91.8574C96.3086 91.8574 95.4199 92.043 94.5508 92.4141C93.6914 92.7852 92.9248 93.3174 92.251 94.0107C91.5674 94.7139 91.0205 95.5732 90.6104 96.5889C90.2002 97.5947 89.9951 98.7373 89.9951 100.017V100.632C89.9951 101.735 90.1807 102.756 90.5518 103.693C90.9229 104.631 91.4404 105.441 92.1045 106.125C92.7686 106.809 93.5645 107.341 94.4922 107.722C95.4297 108.103 96.4551 108.293 97.5684 108.293ZM97.2168 94.084C97.9102 94.084 98.5059 94.2109 99.0039 94.4648C99.5117 94.7188 99.9316 95.0508 100.264 95.4609C100.596 95.8711 100.854 96.3594 101.04 96.9258C101.226 97.4824 101.318 98.0049 101.318 98.4932V98.625H92.793C92.9004 97.8926 93.0859 97.248 93.3496 96.6914C93.623 96.125 93.9551 95.6465 94.3457 95.2559C94.7363 94.875 95.1758 94.5869 95.6641 94.3916C96.1523 94.1865 96.6699 94.084 97.2168 94.084ZM118.999 108H121.826V107.766C121.65 107.326 121.514 106.813 121.416 106.228C121.318 105.632 121.27 105.07 121.27 104.543V97.1748C121.27 96.2861 121.108 95.5098 120.786 94.8457C120.464 94.1816 120.024 93.625 119.468 93.1758C118.901 92.7363 118.232 92.4092 117.461 92.1943C116.689 91.9697 115.854 91.8574 114.956 91.8574C113.97 91.8574 113.086 91.9941 112.305 92.2676C111.533 92.541 110.879 92.8975 110.342 93.3369C109.795 93.7861 109.375 94.2891 109.082 94.8457C108.799 95.4023 108.652 95.9688 108.643 96.5449H111.367C111.367 96.2129 111.445 95.8955 111.602 95.5928C111.768 95.2803 111.997 95.0117 112.29 94.7871C112.583 94.5625 112.939 94.3818 113.359 94.2451C113.789 94.1084 114.272 94.04 114.81 94.04C115.386 94.04 115.903 94.1133 116.362 94.2598C116.831 94.4062 117.227 94.6113 117.549 94.875C117.871 95.1484 118.12 95.4756 118.296 95.8564C118.472 96.2373 118.56 96.667 118.56 97.1455V98.3906H115.601C114.497 98.3906 113.496 98.498 112.598 98.7129C111.709 98.9277 110.947 99.25 110.312 99.6797C109.678 100.119 109.185 100.666 108.833 101.32C108.491 101.975 108.32 102.736 108.32 103.605C108.32 104.27 108.447 104.89 108.701 105.466C108.965 106.032 109.336 106.521 109.814 106.931C110.283 107.351 110.854 107.683 111.528 107.927C112.212 108.171 112.974 108.293 113.813 108.293C114.331 108.293 114.819 108.239 115.278 108.132C115.737 108.024 116.172 107.878 116.582 107.692C116.982 107.507 117.349 107.292 117.681 107.048C118.022 106.804 118.33 106.545 118.604 106.271C118.633 106.604 118.677 106.926 118.735 107.238C118.804 107.541 118.892 107.795 118.999 108ZM114.209 105.935C113.682 105.935 113.218 105.866 112.817 105.729C112.417 105.593 112.085 105.402 111.821 105.158C111.558 104.924 111.357 104.641 111.221 104.309C111.094 103.977 111.03 103.615 111.03 103.225C111.03 102.814 111.104 102.448 111.25 102.126C111.406 101.804 111.631 101.525 111.924 101.291C112.334 100.959 112.886 100.715 113.579 100.559C114.282 100.393 115.103 100.31 116.04 100.31H118.56V103.518C118.403 103.83 118.188 104.133 117.915 104.426C117.642 104.709 117.319 104.963 116.948 105.188C116.567 105.412 116.147 105.593 115.688 105.729C115.229 105.866 114.736 105.935 114.209 105.935ZM133.018 88.3125H130.293V92.1504H126.133V94.2451H130.293V102.858C130.293 103.835 130.42 104.67 130.674 105.363C130.938 106.047 131.294 106.604 131.743 107.033C132.192 107.473 132.72 107.795 133.325 108C133.94 108.195 134.6 108.293 135.303 108.293C135.723 108.293 136.143 108.273 136.562 108.234C136.992 108.195 137.397 108.137 137.778 108.059C138.159 107.99 138.511 107.907 138.833 107.81C139.155 107.702 139.429 107.58 139.653 107.443L139.272 105.524C139.106 105.563 138.892 105.612 138.628 105.671C138.374 105.72 138.101 105.769 137.808 105.817C137.505 105.866 137.197 105.91 136.885 105.949C136.572 105.979 136.27 105.993 135.977 105.993C135.576 105.993 135.195 105.944 134.834 105.847C134.482 105.749 134.17 105.578 133.896 105.334C133.623 105.1 133.408 104.782 133.252 104.382C133.096 103.981 133.018 103.474 133.018 102.858V94.2451H139.053V92.1504H133.018V88.3125ZM143.857 99.9287V100.251C143.857 101.394 144.023 102.453 144.355 103.43C144.688 104.406 145.166 105.256 145.791 105.979C146.406 106.701 147.158 107.268 148.047 107.678C148.945 108.088 149.956 108.293 151.079 108.293C152.192 108.293 153.193 108.088 154.082 107.678C154.971 107.268 155.728 106.701 156.353 105.979C156.968 105.256 157.441 104.406 157.773 103.43C158.105 102.453 158.271 101.394 158.271 100.251V99.9287C158.271 98.7861 158.105 97.7266 157.773 96.75C157.441 95.7637 156.968 94.9092 156.353 94.1865C155.728 93.4639 154.966 92.8975 154.067 92.4873C153.179 92.0674 152.173 91.8574 151.05 91.8574C149.937 91.8574 148.936 92.0674 148.047 92.4873C147.158 92.8975 146.406 93.4639 145.791 94.1865C145.166 94.9092 144.688 95.7637 144.355 96.75C144.023 97.7266 143.857 98.7861 143.857 99.9287ZM146.567 100.251V99.9287C146.567 99.1572 146.66 98.4199 146.846 97.7168C147.031 97.0039 147.314 96.3789 147.695 95.8418C148.066 95.3047 148.53 94.8799 149.087 94.5674C149.644 94.2451 150.298 94.084 151.05 94.084C151.802 94.084 152.456 94.2451 153.013 94.5674C153.579 94.8799 154.053 95.3047 154.434 95.8418C154.805 96.3789 155.083 97.0039 155.269 97.7168C155.464 98.4199 155.562 99.1572 155.562 99.9287V100.251C155.562 101.032 155.469 101.779 155.283 102.492C155.098 103.195 154.819 103.815 154.448 104.353C154.067 104.89 153.594 105.314 153.027 105.627C152.471 105.939 151.821 106.096 151.079 106.096C150.327 106.096 149.668 105.939 149.102 105.627C148.535 105.314 148.066 104.89 147.695 104.353C147.314 103.815 147.031 103.195 146.846 102.492C146.66 101.779 146.567 101.032 146.567 100.251ZM194.014 108V86.6719H191.274L191.23 102.58L182.954 86.6719H180.2V108H182.939L182.983 92.0625L191.26 108H194.014ZM209.087 108H211.914V107.766C211.738 107.326 211.602 106.813 211.504 106.228C211.406 105.632 211.357 105.07 211.357 104.543V97.1748C211.357 96.2861 211.196 95.5098 210.874 94.8457C210.552 94.1816 210.112 93.625 209.556 93.1758C208.989 92.7363 208.32 92.4092 207.549 92.1943C206.777 91.9697 205.942 91.8574 205.044 91.8574C204.058 91.8574 203.174 91.9941 202.393 92.2676C201.621 92.541 200.967 92.8975 200.43 93.3369C199.883 93.7861 199.463 94.2891 199.17 94.8457C198.887 95.4023 198.74 95.9688 198.73 96.5449H201.455C201.455 96.2129 201.533 95.8955 201.689 95.5928C201.855 95.2803 202.085 95.0117 202.378 94.7871C202.671 94.5625 203.027 94.3818 203.447 94.2451C203.877 94.1084 204.36 94.04 204.897 94.04C205.474 94.04 205.991 94.1133 206.45 94.2598C206.919 94.4062 207.314 94.6113 207.637 94.875C207.959 95.1484 208.208 95.4756 208.384 95.8564C208.56 96.2373 208.647 96.667 208.647 97.1455V98.3906H205.688C204.585 98.3906 203.584 98.498 202.686 98.7129C201.797 98.9277 201.035 99.25 200.4 99.6797C199.766 100.119 199.272 100.666 198.921 101.32C198.579 101.975 198.408 102.736 198.408 103.605C198.408 104.27 198.535 104.89 198.789 105.466C199.053 106.032 199.424 106.521 199.902 106.931C200.371 107.351 200.942 107.683 201.616 107.927C202.3 108.171 203.062 108.293 203.901 108.293C204.419 108.293 204.907 108.239 205.366 108.132C205.825 108.024 206.26 107.878 206.67 107.692C207.07 107.507 207.437 107.292 207.769 107.048C208.11 106.804 208.418 106.545 208.691 106.271C208.721 106.604 208.765 106.926 208.823 107.238C208.892 107.541 208.979 107.795 209.087 108ZM204.297 105.935C203.77 105.935 203.306 105.866 202.905 105.729C202.505 105.593 202.173 105.402 201.909 105.158C201.646 104.924 201.445 104.641 201.309 104.309C201.182 103.977 201.118 103.615 201.118 103.225C201.118 102.814 201.191 102.448 201.338 102.126C201.494 101.804 201.719 101.525 202.012 101.291C202.422 100.959 202.974 100.715 203.667 100.559C204.37 100.393 205.19 100.31 206.128 100.31H208.647V103.518C208.491 103.83 208.276 104.133 208.003 104.426C207.729 104.709 207.407 104.963 207.036 105.188C206.655 105.412 206.235 105.593 205.776 105.729C205.317 105.866 204.824 105.935 204.297 105.935ZM222.095 108H224.16L230.62 92.1504H227.852L223.413 104.104L223.149 105.085L222.9 104.104L218.359 92.1504H215.576L222.095 108ZM235.132 92.1504V94.5088H240.522V105.656H235.132V108H248.403V105.656H243.232V92.1504H235.132ZM240.171 87.9902C240.171 88.4297 240.303 88.7959 240.566 89.0889C240.84 89.3818 241.25 89.5283 241.797 89.5283C242.334 89.5283 242.739 89.3818 243.013 89.0889C243.286 88.7959 243.423 88.4297 243.423 87.9902C243.423 87.7461 243.384 87.5215 243.306 87.3164C243.228 87.1113 243.11 86.9404 242.954 86.8037C242.827 86.6768 242.666 86.5791 242.471 86.5107C242.275 86.4326 242.051 86.3936 241.797 86.3936C241.543 86.3936 241.313 86.4326 241.108 86.5107C240.913 86.5791 240.752 86.6768 240.625 86.8037C240.469 86.9502 240.352 87.126 240.273 87.3311C240.205 87.5361 240.171 87.7559 240.171 87.9902ZM252.227 99.9434V100.251C252.227 101.384 252.373 102.443 252.666 103.43C252.959 104.406 253.379 105.256 253.926 105.979C254.463 106.701 255.122 107.268 255.903 107.678C256.685 108.088 257.559 108.293 258.525 108.293C259.102 108.293 259.639 108.229 260.137 108.103C260.635 107.985 261.089 107.814 261.499 107.59C261.763 107.443 262.007 107.272 262.231 107.077C262.466 106.882 262.686 106.667 262.891 106.433V107.795C262.891 108.479 262.793 109.084 262.598 109.611C262.402 110.139 262.124 110.578 261.763 110.93C261.392 111.291 260.947 111.564 260.43 111.75C259.912 111.936 259.331 112.028 258.687 112.028C258.325 112.028 257.964 111.989 257.603 111.911C257.241 111.843 256.88 111.726 256.519 111.56C256.157 111.394 255.801 111.169 255.449 110.886C255.098 110.612 254.756 110.275 254.424 109.875L253.018 111.501C253.379 112.019 253.809 112.453 254.307 112.805C254.814 113.156 255.342 113.435 255.889 113.64C256.426 113.854 256.958 114.006 257.485 114.094C258.013 114.191 258.481 114.24 258.892 114.24C259.888 114.24 260.796 114.094 261.616 113.801C262.437 113.508 263.145 113.078 263.74 112.512C264.326 111.945 264.78 111.257 265.103 110.446C265.435 109.636 265.601 108.708 265.601 107.663V92.1504H263.14L263.008 93.8789C262.822 93.6445 262.622 93.4297 262.407 93.2344C262.202 93.0391 261.982 92.8682 261.748 92.7217C261.318 92.4385 260.835 92.2236 260.298 92.0771C259.771 91.9307 259.189 91.8574 258.555 91.8574C257.568 91.8574 256.685 92.0576 255.903 92.458C255.122 92.8584 254.458 93.415 253.911 94.1279C253.364 94.8408 252.944 95.6953 252.651 96.6914C252.368 97.6777 252.227 98.7617 252.227 99.9434ZM254.937 100.251V99.9434C254.937 99.1719 255.015 98.4395 255.171 97.7461C255.337 97.043 255.596 96.4229 255.947 95.8857C256.289 95.3584 256.729 94.9385 257.266 94.626C257.812 94.3135 258.467 94.1572 259.229 94.1572C259.678 94.1572 260.088 94.2158 260.459 94.333C260.83 94.4404 261.167 94.5918 261.47 94.7871C261.772 94.9922 262.041 95.2314 262.275 95.5049C262.51 95.7783 262.715 96.0811 262.891 96.4131V103.679C262.715 104.021 262.51 104.333 262.275 104.616C262.041 104.899 261.777 105.144 261.484 105.349C261.182 105.554 260.84 105.715 260.459 105.832C260.088 105.939 259.668 105.993 259.199 105.993C258.447 105.993 257.803 105.842 257.266 105.539C256.729 105.227 256.289 104.807 255.947 104.279C255.596 103.752 255.337 103.142 255.171 102.448C255.015 101.755 254.937 101.022 254.937 100.251ZM281.157 108H283.984V107.766C283.809 107.326 283.672 106.813 283.574 106.228C283.477 105.632 283.428 105.07 283.428 104.543V97.1748C283.428 96.2861 283.267 95.5098 282.944 94.8457C282.622 94.1816 282.183 93.625 281.626 93.1758C281.06 92.7363 280.391 92.4092 279.619 92.1943C278.848 91.9697 278.013 91.8574 277.114 91.8574C276.128 91.8574 275.244 91.9941 274.463 92.2676C273.691 92.541 273.037 92.8975 272.5 93.3369C271.953 93.7861 271.533 94.2891 271.24 94.8457C270.957 95.4023 270.811 95.9688 270.801 96.5449H273.525C273.525 96.2129 273.604 95.8955 273.76 95.5928C273.926 95.2803 274.155 95.0117 274.448 94.7871C274.741 94.5625 275.098 94.3818 275.518 94.2451C275.947 94.1084 276.431 94.04 276.968 94.04C277.544 94.04 278.062 94.1133 278.521 94.2598C278.989 94.4062 279.385 94.6113 279.707 94.875C280.029 95.1484 280.278 95.4756 280.454 95.8564C280.63 96.2373 280.718 96.667 280.718 97.1455V98.3906H277.759C276.655 98.3906 275.654 98.498 274.756 98.7129C273.867 98.9277 273.105 99.25 272.471 99.6797C271.836 100.119 271.343 100.666 270.991 101.32C270.649 101.975 270.479 102.736 270.479 103.605C270.479 104.27 270.605 104.89 270.859 105.466C271.123 106.032 271.494 106.521 271.973 106.931C272.441 107.351 273.013 107.683 273.687 107.927C274.37 108.171 275.132 108.293 275.972 108.293C276.489 108.293 276.978 108.239 277.437 108.132C277.896 108.024 278.33 107.878 278.74 107.692C279.141 107.507 279.507 107.292 279.839 107.048C280.181 106.804 280.488 106.545 280.762 106.271C280.791 106.604 280.835 106.926 280.894 107.238C280.962 107.541 281.05 107.795 281.157 108ZM276.367 105.935C275.84 105.935 275.376 105.866 274.976 105.729C274.575 105.593 274.243 105.402 273.979 105.158C273.716 104.924 273.516 104.641 273.379 104.309C273.252 103.977 273.188 103.615 273.188 103.225C273.188 102.814 273.262 102.448 273.408 102.126C273.564 101.804 273.789 101.525 274.082 101.291C274.492 100.959 275.044 100.715 275.737 100.559C276.44 100.393 277.261 100.31 278.198 100.31H280.718V103.518C280.562 103.83 280.347 104.133 280.073 104.426C279.8 104.709 279.478 104.963 279.106 105.188C278.726 105.412 278.306 105.593 277.847 105.729C277.388 105.866 276.895 105.935 276.367 105.935ZM295.176 88.3125H292.451V92.1504H288.291V94.2451H292.451V102.858C292.451 103.835 292.578 104.67 292.832 105.363C293.096 106.047 293.452 106.604 293.901 107.033C294.351 107.473 294.878 107.795 295.483 108C296.099 108.195 296.758 108.293 297.461 108.293C297.881 108.293 298.301 108.273 298.721 108.234C299.15 108.195 299.556 108.137 299.937 108.059C300.317 107.99 300.669 107.907 300.991 107.81C301.313 107.702 301.587 107.58 301.812 107.443L301.431 105.524C301.265 105.563 301.05 105.612 300.786 105.671C300.532 105.72 300.259 105.769 299.966 105.817C299.663 105.866 299.355 105.91 299.043 105.949C298.73 105.979 298.428 105.993 298.135 105.993C297.734 105.993 297.354 105.944 296.992 105.847C296.641 105.749 296.328 105.578 296.055 105.334C295.781 105.1 295.566 104.782 295.41 104.382C295.254 103.981 295.176 103.474 295.176 102.858V94.2451H301.211V92.1504H295.176V88.3125ZM306.016 99.9287V100.251C306.016 101.394 306.182 102.453 306.514 103.43C306.846 104.406 307.324 105.256 307.949 105.979C308.564 106.701 309.316 107.268 310.205 107.678C311.104 108.088 312.114 108.293 313.237 108.293C314.351 108.293 315.352 108.088 316.24 107.678C317.129 107.268 317.886 106.701 318.511 105.979C319.126 105.256 319.6 104.406 319.932 103.43C320.264 102.453 320.43 101.394 320.43 100.251V99.9287C320.43 98.7861 320.264 97.7266 319.932 96.75C319.6 95.7637 319.126 94.9092 318.511 94.1865C317.886 93.4639 317.124 92.8975 316.226 92.4873C315.337 92.0674 314.331 91.8574 313.208 91.8574C312.095 91.8574 311.094 92.0674 310.205 92.4873C309.316 92.8975 308.564 93.4639 307.949 94.1865C307.324 94.9092 306.846 95.7637 306.514 96.75C306.182 97.7266 306.016 98.7861 306.016 99.9287ZM308.726 100.251V99.9287C308.726 99.1572 308.818 98.4199 309.004 97.7168C309.189 97.0039 309.473 96.3789 309.854 95.8418C310.225 95.3047 310.688 94.8799 311.245 94.5674C311.802 94.2451 312.456 94.084 313.208 94.084C313.96 94.084 314.614 94.2451 315.171 94.5674C315.737 94.8799 316.211 95.3047 316.592 95.8418C316.963 96.3789 317.241 97.0039 317.427 97.7168C317.622 98.4199 317.72 99.1572 317.72 99.9287V100.251C317.72 101.032 317.627 101.779 317.441 102.492C317.256 103.195 316.978 103.815 316.606 104.353C316.226 104.89 315.752 105.314 315.186 105.627C314.629 105.939 313.979 106.096 313.237 106.096C312.485 106.096 311.826 105.939 311.26 105.627C310.693 105.314 310.225 104.89 309.854 104.353C309.473 103.815 309.189 103.195 309.004 102.492C308.818 101.779 308.726 101.032 308.726 100.251ZM335.181 91.8574C334.028 91.8574 332.998 92.1113 332.09 92.6191C331.191 93.1172 330.42 93.8008 329.775 94.6699L329.761 94.2744L329.644 92.1504H327.065V108H329.79V97.834C329.966 97.3457 330.186 96.9062 330.449 96.5156C330.723 96.1152 331.04 95.7783 331.401 95.5049C331.802 95.1924 332.271 94.958 332.808 94.8018C333.345 94.6357 333.945 94.5527 334.609 94.5527C335.127 94.5527 335.62 94.582 336.089 94.6406C336.567 94.6895 337.07 94.7725 337.598 94.8896L337.964 92.2383C337.69 92.1211 337.28 92.0283 336.733 91.96C336.196 91.8916 335.679 91.8574 335.181 91.8574ZM353.345 103.796C353.345 104.05 353.296 104.289 353.198 104.514C353.101 104.738 352.959 104.943 352.773 105.129C352.471 105.432 352.051 105.671 351.514 105.847C350.977 106.013 350.347 106.096 349.624 106.096C349.165 106.096 348.701 106.047 348.232 105.949C347.764 105.852 347.339 105.686 346.958 105.451C346.567 105.217 346.24 104.909 345.977 104.528C345.723 104.147 345.576 103.679 345.537 103.122H342.827C342.827 103.796 342.979 104.445 343.281 105.07C343.594 105.695 344.043 106.242 344.629 106.711C345.205 107.189 345.913 107.575 346.753 107.868C347.593 108.151 348.55 108.293 349.624 108.293C350.562 108.293 351.426 108.181 352.217 107.956C353.008 107.731 353.687 107.414 354.253 107.004C354.819 106.594 355.259 106.101 355.571 105.524C355.894 104.948 356.055 104.309 356.055 103.605C356.055 102.951 355.913 102.375 355.63 101.877C355.356 101.379 354.956 100.939 354.429 100.559C353.901 100.188 353.252 99.8701 352.48 99.6064C351.709 99.333 350.835 99.0938 349.858 98.8887C349.116 98.7422 348.501 98.5908 348.013 98.4346C347.534 98.2783 347.153 98.1025 346.87 97.9072C346.577 97.7119 346.372 97.4922 346.255 97.248C346.138 97.0039 346.079 96.7256 346.079 96.4131C346.079 96.1104 346.152 95.8174 346.299 95.5342C346.445 95.251 346.665 95.002 346.958 94.7871C347.241 94.5723 347.598 94.4014 348.027 94.2744C348.467 94.1475 348.975 94.084 349.551 94.084C350.107 94.084 350.605 94.1621 351.045 94.3184C351.494 94.4746 351.875 94.6797 352.188 94.9336C352.5 95.1875 352.744 95.4805 352.92 95.8125C353.096 96.1348 353.184 96.4668 353.184 96.8086H355.894C355.894 96.1152 355.742 95.4707 355.439 94.875C355.146 94.2695 354.727 93.7422 354.18 93.293C353.633 92.8438 352.969 92.4922 352.188 92.2383C351.406 91.9844 350.527 91.8574 349.551 91.8574C348.643 91.8574 347.808 91.9795 347.046 92.2236C346.294 92.4678 345.645 92.7998 345.098 93.2197C344.551 93.6396 344.126 94.1328 343.823 94.6992C343.521 95.2559 343.369 95.8564 343.369 96.501C343.369 97.1553 343.516 97.7314 343.809 98.2295C344.102 98.7178 344.517 99.1426 345.054 99.5039C345.581 99.875 346.216 100.192 346.958 100.456C347.71 100.72 348.54 100.944 349.448 101.13C350.19 101.276 350.811 101.442 351.309 101.628C351.807 101.804 352.207 101.999 352.51 102.214C352.812 102.429 353.027 102.668 353.154 102.932C353.281 103.186 353.345 103.474 353.345 103.796Z" fill="black"/>
<path d="M65.2636 127.638C63.2593 127.638 61.5057 126.385 60.8792 124.382L37.2055 49.4779C36.4541 47.0978 37.832 44.4681 40.2119 43.7156C42.5921 42.9642 45.2218 44.3421 45.9742 46.722L69.6479 121.626C70.3993 124.006 69.0214 126.636 66.6415 127.388C66.1408 127.513 65.7651 127.639 65.2636 127.639L65.2636 127.638Z" fill="black"/>
<path d="M57.6229 65.0096L64.0108 85.5518C65.3896 82.0446 69.8988 72.6503 78.4159 69.1433L71.6524 50.4798C71.6524 50.3548 63.1345 50.7305 57.6229 65.0098V65.0096Z" fill="black"/>
<path d="M95.5759 44.2169L88.6865 27.9332H85.9309C76.9123 27.5575 70.2737 29.6868 65.3887 32.8183L71.5265 50.4798C71.6514 50.3548 83.6756 39.5826 95.5759 44.2169Z" fill="black"/>
<path d="M78.4158 69.1431L82.925 79.4147C87.4343 76.1582 93.0707 73.7783 101.213 73.7783C104.094 73.7783 106.725 73.6534 109.104 73.5275L103.844 60.7511C103.843 60.6253 86.8078 58.2453 78.4164 69.1433L78.4158 69.1431Z" fill="black"/>
<path d="M124.009 16.034C123.759 15.5334 123.383 15.1568 122.756 15.0318C122.256 14.9069 121.629 15.1568 121.379 15.6583C121.379 15.7832 117.871 20.0427 110.356 23.5497L116.994 38.3296C116.994 38.3296 124.76 35.9495 130.647 30.9397L124.009 16.034Z" fill="black"/>
<path d="M95.5759 44.2169L103.717 60.6254C103.717 60.6254 115.366 63.0055 125.637 55.3646L116.869 38.4544C116.994 38.4544 111.984 45.093 95.5759 44.2167V44.2169Z" fill="black"/>
<path d="M140.293 52.7344L138.664 49.1024C135.658 51.2316 131.399 53.6116 125.638 55.2402L131.023 66.6389C134.655 63.8832 136.911 60.6267 139.04 57.2446C139.416 56.7439 140.167 54.9904 140.167 54.9904C140.418 54.8637 140.669 54.1123 140.293 52.7344H140.293Z" fill="black"/>
<path d="M39 118L353.617 115V119L39 118Z" fill="url(#paint0_linear_103_248)"/>
<ellipse cx="353.617" cy="117" rx="2.38346" ry="2" fill="#EE0000"/>
<path d="M39 123L353.617 120V124L39 123Z" fill="url(#paint1_linear_103_248)"/>
<ellipse cx="353.617" cy="122" rx="2.38346" ry="2" fill="#EE0000"/>
<defs>
<linearGradient id="paint0_linear_103_248" x1="39" y1="118" x2="460.872" y2="118" gradientUnits="userSpaceOnUse">
<stop stop-color="#D9D9D9" stop-opacity="0"/>
<stop offset="0.71875" stop-color="#EE0000"/>
</linearGradient>
<linearGradient id="paint1_linear_103_248" x1="39" y1="123" x2="460.872" y2="123" gradientUnits="userSpaceOnUse">
<stop stop-color="#D9D9D9" stop-opacity="0"/>
<stop offset="0.71875" stop-color="#EE0000"/>
</linearGradient>
</defs>
</svg>
