<svg width="672" height="672" viewBox="0 0 672 672" fill="none" xmlns="http://www.w3.org/2000/svg">
<g clip-path="url(#clip0_111_37)">
<path d="M625.493 626.16H358.76V515.873H515.213V469.701H358.76V156.795H156.133V202.967H312.587V626.167H45.84V469.7H-0.332041V672.327H671.668V156.78H625.496L625.493 626.16ZM-0.333374 0.333374V359.427H156.12V515.88H202.292V313.24H45.8386V46.5067H469.039V359.413H515.211L515.216 46.5067H671.669V0.334707L-0.333374 0.333374ZM250.52 501.52H264.364V434.332H250.52V501.52ZM264.364 327.627H250.52V394.815H264.364V327.627ZM277.197 94.7334V108.577H344.385V94.7334H277.197ZM227.437 577.947H264.359V541.015H250.515V564.103H227.427V577.947H227.437ZM170.5 94.7334V108.577H237.693V94.7334H170.5ZM153.916 251.187V265.031H204.52V251.187H153.916ZM264.364 251.187H227.443V265.031H250.531V288.119H264.375V251.187H264.364ZM52.764 407.64H15.8426V421.484H52.764V407.64ZM94.0706 577.933H130.992V564.089H107.904V541.001H94.06V577.933H94.0706ZM70.9826 421.48H94.0706V444.568H107.915L107.909 407.636H70.9827L70.9826 421.48ZM153.915 564.093V577.937H204.519V564.093H153.915ZM107.909 467.489H94.0653V518.099H107.909V467.489ZM94.0706 265.023H130.992V251.179H107.904V228.091H94.06V265.023H94.0706ZM563.444 407.636H540.356V421.48H577.288V384.548H563.444V407.636ZM655.512 94.7294H618.591V108.573H655.512V94.7294ZM563.444 345.049H577.288V277.856H563.444V345.049ZM577.283 108.569H600.371V94.7254H563.439V131.647H577.283V108.569ZM107.909 154.58H94.0653V205.184H107.909V154.58ZM130.992 94.7307H94.0706V131.652H107.915V108.564H131.003L130.997 94.7307H130.992ZM406.979 345.051H420.823V277.863H406.979V345.051ZM420.823 171.171H406.979V238.364H420.823V171.171ZM406.979 421.491H443.911L443.905 407.647H420.817V384.559H406.979L406.979 421.491ZM383.891 108.571H406.979V131.659H420.823V94.7374H383.891V108.571ZM517.451 407.637H466.841V421.481H517.451V407.637ZM563.44 238.331H577.284V171.143H563.44V238.331Z" fill="black"/>
</g>
<defs>
<clipPath id="clip0_111_37">
<rect width="672" height="672" fill="white"/>
</clipPath>
</defs>
</svg>
