<svg width="627" height="597" viewBox="0 0 627 597" fill="none" xmlns="http://www.w3.org/2000/svg">
<g clip-path="url(#clip0_115_211)">
<path d="M487.133 -0.234649C521.592 -0.890902 557.196 1.90082 588.879 3.96842C525.264 19.7911 445.305 32.4218 375.265 46.0098C331.787 54.4472 292.489 63.2177 263.391 74.0364C242.667 82.3281 213.271 95.5311 212.755 118.646C213.968 150.848 255.697 169.916 281.525 183.578C382.739 233.479 476.632 266.651 565.565 327.458C603.587 355.682 627.273 385.718 627.273 417.614C627.273 472.42 577.195 538.15 518.227 597H306.96C320.069 589.308 331.148 580.022 338.757 572.474L327.924 561.729C313.736 575.797 284.351 597 257.976 597H0.0693359C99.304 562.864 192.349 533.552 261.029 474.844C278.045 457.781 288.112 438.641 288.112 417.62C288.112 392.989 269.284 368.926 243.363 343.578C182.956 285.272 114.097 243.636 57.0693 186.392C32.148 161.105 16.7933 137.34 16.7933 118.657C18.1006 92.517 49.5427 75.4743 70.9653 65.1676C106.809 48.1156 158.523 33.3863 218.872 22.4223C320.549 5.99562 406.792 0.110282 487.139 -0.233718L487.133 -0.234649ZM263.627 36.672C233.481 44.146 202.82 51.6414 171.772 67.036L178.366 80.5827C207.616 66.0773 237.246 58.6293 267.392 51.1507L263.627 36.672ZM139.507 83.3854C123.543 99.2134 114.777 116.161 114.777 133.604C114.777 151.041 123.548 167.995 139.507 183.823L150.34 173.078C136.152 159.01 129.851 146.062 129.851 133.605C129.851 121.147 136.158 108.198 150.34 94.1312L139.507 83.3854ZM187.319 202.505L177.897 214.182L253.266 273.974L262.688 262.297L187.319 202.505ZM292.36 284.255L283.881 296.869L374.323 356.661L382.803 344.047L292.36 284.255ZM420.016 366.473L412.48 379.317C431.006 390.338 448.813 402.937 457.938 416.921C467.063 430.905 468.954 445.15 455.11 465.738L467.829 474.15C484.136 449.895 482.256 426.765 470.657 408.983C459.058 391.202 439.178 377.874 420.021 366.473L420.016 366.473ZM434.38 486.296L351.473 546.088L360.421 558.234L443.328 498.442L434.38 486.296Z" fill="black"/>
</g>
<defs>
<clipPath id="clip0_115_211">
<rect width="627" height="597" fill="white"/>
</clipPath>
</defs>
</svg>
