<svg width="734" height="692" viewBox="0 0 734 692" fill="none" xmlns="http://www.w3.org/2000/svg">
<g clip-path="url(#clip0_114_127)">
<path d="M317.053 324.427H8.75998C4.11411 324.427 0.463043 320.775 0.463043 316.13V7.83624C0.463043 3.19037 4.11411 -0.460693 8.75998 -0.460693H317.053C321.699 -0.460693 325.35 3.19037 325.35 7.83624L325.345 316.13C325.345 320.609 321.699 324.427 317.053 324.427V324.427ZM17.0533 307.833H308.747V16.1398H17.0533V307.833Z" fill="black"/>
<path d="M277.067 284.427H48.7466C44.1008 284.427 40.4497 280.776 40.4497 276.13L40.4549 47.8231C40.4549 43.1772 44.106 39.5261 48.7518 39.5261H277.059C281.704 39.5261 285.355 43.1772 285.355 47.8231C285.355 52.4689 281.704 56.12 277.059 56.12H57.0318V267.84H277.059C281.704 267.84 285.355 271.491 285.355 276.137C285.355 280.778 281.704 284.429 277.059 284.429L277.067 284.427Z" fill="black"/>
<path d="M571.253 324.427C481.655 324.427 408.64 251.583 408.64 161.813C408.64 72.0439 481.484 -0.800049 571.253 -0.800049C661.019 -0.800049 733.867 72.0439 733.867 161.813C733.861 251.584 660.856 324.427 571.253 324.427ZM571.253 15.9733C490.78 15.9733 425.24 81.5146 425.24 161.987C425.24 242.459 490.781 308 571.253 308C651.727 308 717.267 242.459 717.267 161.987C717.261 81.5133 651.725 15.9733 571.253 15.9733V15.9733Z" fill="black"/>
<path d="M571.253 287.253C502.227 287.253 445.977 231.003 445.977 161.977C445.977 92.9518 502.228 36.7012 571.253 36.7012C575.899 36.7012 579.55 40.3522 579.55 44.9981C579.55 49.644 575.899 53.295 571.253 53.295C511.352 53.295 462.571 102.076 462.571 161.978C462.571 221.879 511.352 270.66 571.253 270.66C631.155 270.66 679.936 221.879 679.936 161.978C679.936 157.332 683.587 153.681 688.233 153.681C692.879 153.681 696.53 157.332 696.53 161.978C696.525 231.004 640.275 287.254 571.254 287.254L571.253 287.253Z" fill="black"/>
<path d="M725.4 691.787H417.107C414.284 691.787 411.466 690.292 409.971 687.802C408.476 685.313 408.31 682.328 409.638 679.672L566.931 371.379C568.426 368.556 571.244 366.899 574.4 366.899C577.551 366.899 580.374 368.722 581.869 371.545L732.869 679.839C734.197 682.328 734.03 685.479 732.536 687.802C730.874 690.292 728.218 691.787 725.4 691.787ZM430.707 675.193H712.12L574.24 393.78L430.707 675.193Z" fill="black"/>
<path d="M661.347 651.787H482.48C479.657 651.787 476.839 650.292 475.345 647.802C473.85 645.313 473.683 642.328 475.011 639.672L566.271 460.805C568.427 456.659 573.407 455.165 577.386 457.154C581.532 459.311 583.026 464.29 581.037 468.269L495.917 635.029H661.183C665.829 635.029 669.48 638.68 669.48 643.326C669.48 647.982 665.835 651.795 661.35 651.795L661.347 651.787Z" fill="black"/>
<path d="M240.067 691.787H85.76C82.7756 691.787 80.1193 690.125 78.6245 687.641L1.46851 554.067C-0.0262879 551.578 -0.0262879 548.26 1.46851 545.77L78.6245 412.197C80.1193 409.708 82.7704 408.051 85.76 408.051H240.067C243.051 408.051 245.707 409.713 247.202 412.197L324.358 545.77C325.853 548.26 325.853 551.578 324.358 554.067L247.197 687.641C245.707 690.13 243.051 691.787 240.067 691.787H240.067ZM90.5733 675.193H235.267L307.611 549.917L235.267 424.641H90.5733L18.2293 549.923L90.5733 675.193Z" fill="black"/>
<path d="M217 651.787H108.984C106 651.787 103.343 650.125 101.849 647.641L47.7552 554.057C46.2604 551.567 46.2604 548.249 47.7552 545.76L101.682 452.181C103.177 449.691 105.828 448.035 108.817 448.035H216.833C221.479 448.035 225.13 451.686 225.13 456.332C225.13 460.978 221.479 464.629 216.833 464.629L113.631 464.624L64.3493 549.91L113.631 635.197H212.027L263.631 545.765C265.954 541.781 270.933 540.458 274.912 542.781C278.896 545.104 280.219 550.083 277.896 554.062L223.803 647.646C222.641 650.13 219.99 651.787 217.001 651.787L217 651.787Z" fill="black"/>
</g>
<defs>
<clipPath id="clip0_114_127">
<rect width="734" height="692" fill="white"/>
</clipPath>
</defs>
</svg>
